<svg xmlns="http://www.w3.org/2000/svg" fill="none" viewBox="0 0 500 500"><defs><linearGradient id="a" x1="-65.21" x2="63.191" y1="-160.991" y2="155.426" gradientUnits="userSpaceOnUse" spreadMethod="pad"><stop offset="0%" stop-color="#0063ad"/><stop offset="50%" stop-color="#0063ad"/><stop offset="100%" stop-color="#0063ad"/></linearGradient><linearGradient id="b" x1="-27.332" x2="101.069" y1="-69.008" y2="247.408" gradientUnits="userSpaceOnUse" spreadMethod="pad"><stop offset="0%" stop-color="#0063ad"/><stop offset="50%" stop-color="#0063ad"/><stop offset="100%" stop-color="#0063ad"/></linearGradient><linearGradient id="c" x1="-91.546" x2="36.855" y1="-224.741" y2="91.675" gradientUnits="userSpaceOnUse" spreadMethod="pad"><stop offset="0%" stop-color="#fbaf16"/><stop offset="50%" stop-color="#fbaf16"/><stop offset="100%" stop-color="#fbaf16"/></linearGradient></defs><g transform="translate(152.21 321.991)"><animateTransform fill="freeze" attributeName="transform" begin="0s" calcMode="spline" dur="5s" keySplines="0 0 1 1; 0 0 1 1" keyTimes="0; 0.996667; 1" repeatCount="indefinite" type="rotate" values="0; 360; 360"/><path fill="url(#a)" d="m70.857-16.218 8.685-3.715a7.08 7.08 0 0 0 3.714-9.291L76.661-44.63c-1.532-3.587-5.683-5.252-9.284-3.721l-9.539 4.087c-1.451.618-3.11.175-4.125-1.038a69 69 0 0 0-11.909-11.241c-1.33-.987-1.847-2.721-1.202-4.246l3.687-8.652c1.525-3.594-.141-7.747-3.728-9.279l-15.423-6.567a7.076 7.076 0 0 0-9.284 3.742l-4.071 9.562c-.612 1.457-2.129 2.287-3.694 2.109a68.8 68.8 0 0 0-16.384.068c-1.632.205-3.217-.693-3.795-2.238l-3.318-8.769a7.067 7.067 0 0 0-9.116-4.114l-15.678 5.921a7.07 7.07 0 0 0-4.112 9.116l3.689 9.763c.557 1.478.047 3.124-1.223 4.085a68.8 68.8 0 0 0-14.624 15.194c-.968 1.363-2.72 1.924-4.266 1.296l-9.383-3.838a7.07 7.07 0 0 0-9.223 3.875l-6.342 15.511a7.074 7.074 0 0 0 3.883 9.223l10.667 4.36c1.445.594 2.298 2.061 2.157 3.62-.666 7.695-.014 15.584 2.015 23.38.416 1.599-.263 3.279-1.727 4.061l-8.336 4.45a7.08 7.08 0 0 0-2.902 9.576l7.899 14.778a7.073 7.073 0 0 0 9.572 2.905l9.177-4.904c1.391-.745 3.09-.45 4.199.675a69.4 69.4 0 0 0 12.809 10.207c1.404.867 2.07 2.546 1.559 4.122l-2.929 8.921c-1.216 3.712.819 7.708 4.528 8.92l15.927 5.213a7.08 7.08 0 0 0 8.927-4.524l3.238-9.895c.497-1.508 1.914-2.458 3.499-2.418a69 69 0 0 0 16.304-1.481c1.612-.342 3.257.413 3.976 1.904l4.064 8.461a7.077 7.077 0 0 0 9.438 3.315l15.101-7.255c3.533-1.686 5.011-5.916 3.319-9.439l-4.508-9.403c-.692-1.424-.316-3.101.853-4.162a69.7 69.7 0 0 0 10.715-12.353c.92-1.368 2.633-1.959 4.185-1.374l8.833 3.318a7.08 7.08 0 0 0 9.115-4.131l5.884-15.691a7.077 7.077 0 0 0-4.131-9.113l-9.76-3.661c-1.478-.554-2.371-2.018-2.257-3.6a69.3 69.3 0 0 0-.819-16.327c-.282-1.629.551-3.24 2.069-3.892m-57.764 37.66c-17.189 9.936-38.719.216-42.628-19.251-2.385-11.789 3.19-24.129 13.602-30.141 17.196-9.932 38.726-.216 42.642 19.255 2.372 11.786-3.197 24.129-13.616 30.137"/></g><g transform="translate(243.332 178.008)"><animateTransform fill="freeze" attributeName="transform" begin="0s" calcMode="spline" dur="5s" keySplines="0 0 1 1; 0 0 1 1" keyTimes="0; 0.996667; 1" repeatCount="indefinite" type="rotate" values="0; -360; -360"/><path fill="url(#b)" d="m70.863-16.223 8.672-3.714a7.074 7.074 0 0 0 3.722-9.287l-6.59-15.407a7.074 7.074 0 0 0-9.29-3.718l-9.532 4.081c-1.457.622-3.116.177-4.124-1.035a68.7 68.7 0 0 0-11.918-11.241c-1.329-.988-1.84-2.724-1.195-4.245l3.681-8.656a7.074 7.074 0 0 0-3.735-9.28l-15.416-6.563a7.084 7.084 0 0 0-9.283 3.735l-4.071 9.569c-.625 1.454-2.123 2.284-3.702 2.106a69.3 69.3 0 0 0-16.377.067c-1.639.205-3.211-.685-3.802-2.237l-3.305-8.766a7.08 7.08 0 0 0-9.122-4.118l-15.678 5.918a7.075 7.075 0 0 0-4.111 9.123l3.682 9.759c.563 1.481.039 3.124-1.217 4.085a69.2 69.2 0 0 0-14.63 15.194c-.961 1.364-2.707 1.926-4.252 1.294l-9.391-3.836c-3.614-1.478-7.746.259-9.23 3.876l-6.335 15.511c-1.478 3.617.262 7.746 3.876 9.223l10.667 4.363c1.451.591 2.305 2.061 2.17 3.623C-69.644.889-69 8.779-66.964 16.578c.416 1.599-.275 3.278-1.726 4.061l-8.33 4.447a7.075 7.075 0 0 0-2.909 9.572l7.893 14.785a7.09 7.09 0 0 0 9.586 2.902l9.169-4.903c1.397-.746 3.083-.448 4.198.677A69.6 69.6 0 0 0-36.272 58.32c1.41.87 2.069 2.552 1.551 4.121l-2.915 8.924a7.075 7.075 0 0 0 4.52 8.925l15.934 5.212c3.701 1.213 7.705-.81 8.914-4.524l3.245-9.898c.491-1.504 1.92-2.462 3.499-2.419a69 69 0 0 0 16.31-1.477c1.606-.342 3.258.406 3.964 1.897l4.071 8.464c1.693 3.526 5.918 5.009 9.431 3.319l15.114-7.255a7.083 7.083 0 0 0 3.319-9.441l-4.522-9.402c-.685-1.427-.316-3.103.86-4.164a69 69 0 0 0 10.708-12.351c.933-1.366 2.646-1.961 4.191-1.376l8.834 3.319a7.066 7.066 0 0 0 9.108-4.135l5.899-15.686c1.363-3.658-.478-7.739-4.139-9.112l-9.753-3.668c-1.477-.551-2.371-2.017-2.264-3.596a68.5 68.5 0 0 0-.819-16.324c-.275-1.632.551-3.247 2.075-3.896M13.101 21.445c-17.19 9.932-38.726.211-42.642-19.259-2.372-11.786 3.197-24.123 13.609-30.138 17.203-9.934 38.726-.214 42.642 19.253 2.371 11.792-3.197 24.125-13.609 30.144"/></g><g transform="translate(344.546 318.741)"><animateTransform fill="freeze" attributeName="transform" begin="0s" calcMode="spline" dur="5s" keySplines="0 0 1 1; 0 0 1 1" keyTimes="0; 0.996667; 1" repeatCount="indefinite" type="rotate" values="0; 360; 360"/><path fill="url(#c)" d="M-14.993 89.089a10.3 10.3 0 0 1-3.204-.51l-15.921-5.21a10.23 10.23 0 0 1-5.991-5.138 10.22 10.22 0 0 1-.605-7.873l2.915-8.924c-5.025-3.359-9.538-6.953-13.589-11.037l-9.546 4.806c-5.011 2.684-11.278.769-13.958-4.232l-7.886-14.788a10.2 10.2 0 0 1-.78-7.846 10.25 10.25 0 0 1 5.012-6.109l8.329-4.447c-1.988-8.44-2.694-16.676-1.982-24.858l-10.841-4.709a10.24 10.24 0 0 1-5.609-5.559 10.24 10.24 0 0 1-.027-7.893l6.334-15.507a10.25 10.25 0 0 1 5.548-5.608 10.3 10.3 0 0 1 7.9-.041l9.378 3.835c4.648-6.206 9.8-11.56 15.698-16.067l-3.533-10.12c-2.002-5.32.692-11.285 6.005-13.297l15.679-5.918c5.3-2.008 11.265.688 13.294 5.995l3.311 8.773c6.032-.534 11.796-.558 17.512.097l4.42-9.726c2.244-5.229 8.323-7.665 13.536-5.448l15.416 6.566c5.226 2.227 7.672 8.293 5.455 13.525l-3.688 8.659c4.776 3.809 8.974 7.765 12.615 12.138l9.895-3.946c5.219-2.23 11.305.195 13.542 5.421l6.59 15.406a10.24 10.24 0 0 1 .101 7.89 10.25 10.25 0 0 1-5.515 5.653l-8.679 3.714q-.009-.001-.007.004c-.201.084-.16.355-.154.386a72.3 72.3 0 0 1 .86 17.072l9.921 4.011c5.327 1.999 8.034 7.957 6.039 13.28l-5.905 15.688a10.22 10.22 0 0 1-5.38 5.764 10.24 10.24 0 0 1-7.893.265l-8.833-3.318c-3.58 4.887-7.355 9.24-11.594 13.092l4.413 9.767a10.25 10.25 0 0 1 .429 7.88 10.23 10.23 0 0 1-5.279 5.884l-15.094 7.248a10.18 10.18 0 0 1-7.886.437 10.26 10.26 0 0 1-5.878-5.27l-4.064-8.464C9.895 71.54 4.165 72.077-1.605 71.899l-3.581 10.087c-1.424 4.343-5.468 7.103-9.807 7.103M-51.63 43.787c1.773 0 3.527.705 4.857 2.056a66.3 66.3 0 0 0 12.212 9.723c2.7 1.679 3.896 4.924 2.915 7.89l-2.915 8.917a3.82 3.82 0 0 0 .228 2.925 3.8 3.8 0 0 0 2.23 1.912l15.921 5.209c2.036.678 4.184-.447 4.843-2.452l3.238-9.895c.934-2.861 3.573-4.745 6.67-4.648a66 66 0 0 0 15.538-1.408c3.077-.645 6.226.847 7.57 3.668l4.064 8.461a3.8 3.8 0 0 0 2.183 1.958 3.8 3.8 0 0 0 2.929-.164l15.101-7.249a3.82 3.82 0 0 0 1.968-2.193 3.8 3.8 0 0 0-.161-2.925l-4.514-9.408c-1.303-2.69-.672-5.895 1.585-7.954a66 66 0 0 0 10.217-11.779c1.8-2.623 5.079-3.684 8.014-2.589l8.834 3.318a3.77 3.77 0 0 0 2.928-.097 3.8 3.8 0 0 0 2.002-2.143l5.904-15.685a3.85 3.85 0 0 0-2.243-4.941l-9.767-3.664c-2.821-1.071-4.568-3.828-4.346-6.868a66 66 0 0 0-.786-15.545c-.524-3.15 1.121-6.193 3.996-7.419l8.679-3.715a3.84 3.84 0 0 0 2.016-5.034l-6.59-15.407a3.846 3.846 0 0 0-5.038-2.011l-9.539 4.08c-2.761 1.176-5.931.41-7.886-1.951a66 66 0 0 0-11.352-10.701c-2.559-1.908-3.48-5.247-2.244-8.125l3.681-8.649a3.84 3.84 0 0 0-2.028-5.031l-15.417-6.563c-1.941-.813-4.205.087-5.038 2.032l-4.064 9.562c-1.175 2.765-3.951 4.421-7.047 4.055-5.219-.588-10.473-.575-15.611.063-3.103.403-6.127-1.373-7.228-4.305l-3.311-8.767c-.752-1.975-2.976-2.968-4.951-2.233l-15.672 5.918a3.854 3.854 0 0 0-2.237 4.95l3.688 9.758c1.075 2.811.154 5.955-2.291 7.809A65.8 65.8 0 0 0-53.82-38.988c-1.874 2.62-5.179 3.634-8.141 2.428l-9.384-3.835a3.85 3.85 0 0 0-2.936.013 3.82 3.82 0 0 0-2.069 2.089l-6.334 15.511a3.8 3.8 0 0 0 .013 2.935 3.75 3.75 0 0 0 2.082 2.062l10.667 4.36c2.755 1.128 4.434 3.903 4.172 6.906a65.6 65.6 0 0 0 1.921 22.278c.793 3.063-.57 6.237-3.318 7.728l-8.35 4.457a3.82 3.82 0 0 0-1.861 2.271 3.8 3.8 0 0 0 .289 2.912l7.886 14.788a3.837 3.837 0 0 0 5.2 1.572l9.176-4.904a6.8 6.8 0 0 1 3.177-.796m122.492-60.01h.067zM-1.424 28.643c-4.44 0-8.887-.944-13.099-2.845-9.485-4.279-16.122-12.652-18.204-22.97-2.633-13.089 3.607-26.897 15.174-33.587 9.109-5.263 19.756-5.824 29.248-1.548 9.478 4.279 16.115 12.652 18.197 22.966 2.634 13.095-3.607 26.907-15.174 33.587-5.058 2.922-10.593 4.397-16.142 4.397m.02-57.31c-4.434 0-8.86 1.179-12.911 3.517-9.189 5.317-14.153 16.296-12.057 26.698 1.666 8.245 6.952 14.933 14.509 18.342 7.551 3.409 16.055 2.948 23.343-1.253l1.619 2.805-1.619-2.805c9.19-5.314 14.153-16.289 12.058-26.698-1.66-8.245-6.953-14.929-14.51-18.342a25.3 25.3 0 0 0-10.432-2.264"/></g></svg>